# xmcd
#
# Track frame offsets: 
#        150
#        21521
#        41928
#        62103
#        80828
#        99770
#        124268
#        146631
#        163471
#
# Disc length: 2364 seconds
#
# Revision: 0
# Processed by: cddbd v1.5.2PL0 Copyright (c) Steve Scherf et al.
# Submitted via: ExactAudioCopyFreeDBPlugin 1.0
#
DISCID=86093a09
DTITLE=BC Camplight - Deportation Blues
DYEAR=2018
DGENRE=No, thanks.
TTITLE0=Deportation blues
TTITLE1=I'm in a weird place now
TTITLE2=Hell or Pennsylvania
TTITLE3=I'm desperate
TTITLE4=When I think of my dog
TTITLE5=Am I dead yet?
TTITLE6=Midnight ease
TTITLE7=Fire in England
TTITLE8=Until you kiss me
EXTD=
EXTT0=
EXTT1=
EXTT2=
EXTT3=
EXTT4=
EXTT5=
EXTT6=
EXTT7=
EXTT8=
PLAYORDER=
